<svg id="Layer_4" data-name="Layer 4" xmlns="http://www.w3.org/2000/svg" xmlns:xlink="http://www.w3.org/1999/xlink" viewBox="0 0 126 41.36"><defs><linearGradient id="Gradiente_sem_nome_3" x1="-95.58" y1="-260.78" x2="-85.63" y2="-252.85" gradientTransform="matrix(0.71, -0.71, -0.71, -0.71, -104.77, -216.73)" gradientUnits="userSpaceOnUse"><stop offset="0" stop-color="#713fe1"/><stop offset="0.11" stop-color="#6d45e2"/><stop offset="0.26" stop-color="#6256e5"/><stop offset="0.43" stop-color="#5072ea"/><stop offset="0.61" stop-color="#3698f1"/><stop offset="0.81" stop-color="#16c9f9"/><stop offset="0.93" stop-color="#00ebff"/></linearGradient><linearGradient id="Gradiente_sem_nome_3-2" x1="-89.33" y1="-256.05" x2="-79.3" y2="-248.05" gradientTransform="matrix(1, 0, 0, -1, 97.98, -229.35)" xlink:href="#Gradiente_sem_nome_3"/><linearGradient id="Gradiente_sem_nome_25" x1="12.7" y1="29.67" x2="12.47" y2="23.54" gradientUnits="userSpaceOnUse"><stop offset="0.01" stop-color="#1e21d1"/><stop offset="1" stop-color="#056fe9"/></linearGradient><linearGradient id="Gradiente_sem_nome_3-3" x1="-86.61" y1="-251.81" x2="-76.71" y2="-243.92" xlink:href="#Gradiente_sem_nome_3"/><linearGradient id="Gradiente_sem_nome_24" x1="12.62" y1="23.16" x2="12.58" y2="16.66" xlink:href="#Gradiente_sem_nome_25"/><linearGradient id="Gradiente_sem_nome_2" x1="-81.73" y1="-247.09" x2="-72.06" y2="-239.06" gradientTransform="matrix(0.71, -0.71, -0.71, -0.71, -104.77, -216.73)" gradientUnits="userSpaceOnUse"><stop offset="0.01" stop-color="#713fe1"/><stop offset="0.09" stop-color="#6453e5"/><stop offset="0.3" stop-color="#4089ee"/><stop offset="0.49" stop-color="#25b3f5"/><stop offset="0.67" stop-color="#11d2fb"/><stop offset="0.82" stop-color="#04e4fe"/><stop offset="0.93" stop-color="#00ebff"/></linearGradient><linearGradient id="Gradiente_sem_nome_23" x1="12.64" y1="16.05" x2="12.41" y2="5.37" gradientUnits="userSpaceOnUse"><stop offset="0.01" stop-color="#1e21d1"/><stop offset="0.54" stop-color="#056fe9"/></linearGradient></defs><path d="M43.58,27.45a5.83,5.83,0,0,0,2.13-2.92l3.61.94A8.41,8.41,0,0,1,46,30.26a10.24,10.24,0,0,1-12.79-1,9.42,9.42,0,0,1-2.88-7.1,9.43,9.43,0,0,1,2.88-7.08,9.63,9.63,0,0,1,7-2.79A9.51,9.51,0,0,1,46,14.08a8.82,8.82,0,0,1,3.4,4.85l-3.76,1a5.22,5.22,0,0,0-2-3,6.21,6.21,0,0,0-7.71.76,6.17,6.17,0,0,0-1.71,4.5,6.19,6.19,0,0,0,1.7,4.53,6.25,6.25,0,0,0,7.7.72Z" style="fill:#e3deff"/><path d="M68,15.17a9.19,9.19,0,0,1,2.88,7,9.24,9.24,0,0,1-2.9,7,9.91,9.91,0,0,1-7.08,2.75,10,10,0,0,1-7.13-2.75,9.26,9.26,0,0,1-2.92-7,9.13,9.13,0,0,1,2.92-7,10.64,10.64,0,0,1,14.23,0ZM65.22,26.81a6.09,6.09,0,0,0,1.84-4.61,6.11,6.11,0,0,0-1.84-4.62A6.19,6.19,0,0,0,54.67,22.2a6.19,6.19,0,0,0,10.55,4.61Z" style="fill:#e3deff"/><path d="M78,5.51a2.35,2.35,0,0,1,.72,1.73A2.36,2.36,0,0,1,78,9a2.43,2.43,0,0,1-1.79.67A2.56,2.56,0,0,1,74.44,9a2.32,2.32,0,0,1-.71-1.74,2.39,2.39,0,0,1,.71-1.73,2.44,2.44,0,0,1,1.81-.73A2.41,2.41,0,0,1,78,5.51Zm-3.73,26V12.86h3.92V31.54Z" style="fill:#e3deff"/><path d="M99,14.53a8,8,0,0,1,2.07,5.71v11.3H97.13V21A5.39,5.39,0,0,0,96,17.34a4,4,0,0,0-3.23-1.41,5.07,5.07,0,0,0-4.09,1.77,8,8,0,0,0-1.45,5.23v8.63h-4V12.86h4v2.29a8,8,0,0,1,6.44-2.82A7.09,7.09,0,0,1,99,14.53Z" style="fill:#e3deff"/><path d="M107.62,25.7a3.11,3.11,0,0,0,1.45,2.37,6,6,0,0,0,3.22.79,4.74,4.74,0,0,0,2.7-.68,2.07,2.07,0,0,0,1-1.8c0-1.11-.84-1.85-2.52-2.23l-4.07-.82c-3.39-.76-5.08-2.45-5.08-5.09a5.28,5.28,0,0,1,2-4.27,8.21,8.21,0,0,1,5.37-1.64A8.7,8.7,0,0,1,117,13.82a6.29,6.29,0,0,1,2.62,3.89l-3.73.8a3.35,3.35,0,0,0-1.35-2.23,4.84,4.84,0,0,0-2.9-.83,3.82,3.82,0,0,0-2.47.7,2.22,2.22,0,0,0-.85,1.75c0,1.06.76,1.76,2.26,2.11L115,21a6.89,6.89,0,0,1,3.58,1.79,4.4,4.4,0,0,1,1.28,3.26,5.18,5.18,0,0,1-2.15,4.44A9.42,9.42,0,0,1,112,32.08a10.58,10.58,0,0,1-5.61-1.41,5.43,5.43,0,0,1-2.63-4.12Z" style="fill:#e3deff"/><circle cx="12.6" cy="30.31" r="6.36" style="fill:url(#Gradiente_sem_nome_3)"/><circle cx="12.6" cy="23.58" r="6.41" transform="translate(-12.98 15.81) rotate(-44.99)" style="fill:url(#Gradiente_sem_nome_3-2)"/><path d="M8.07,28.12a6.41,6.41,0,0,0,9.07,0A6.6,6.6,0,0,0,18,27,6.34,6.34,0,0,0,7.18,27,6.26,6.26,0,0,0,8.07,28.12Z" style="fill:url(#Gradiente_sem_nome_25)"/><circle cx="12.6" cy="17.65" r="6.33" style="fill:url(#Gradiente_sem_nome_3-3)"/><path d="M17.14,19a6.41,6.41,0,0,0-9.07,0A6.25,6.25,0,0,0,7,20.52a6.33,6.33,0,0,0,11.28,0A6.77,6.77,0,0,0,17.14,19Z" style="fill:url(#Gradiente_sem_nome_24)"/><circle cx="12.6" cy="10.97" r="6.29" style="fill:url(#Gradiente_sem_nome_2)"/><path d="M12.6,11.32a6.31,6.31,0,0,0-5.34,2.95,6.27,6.27,0,0,0,10.69,0A6.34,6.34,0,0,0,12.6,11.32Z" style="fill:url(#Gradiente_sem_nome_23)"/></svg>